<?xml version="1.0" encoding="UTF-8"?>
<svg id="Camada_2" data-name="Camada 2" xmlns="http://www.w3.org/2000/svg" xmlns:xlink="http://www.w3.org/1999/xlink" width="25px" height="25px" viewBox="0 0 843.75 843.75">
  <defs>
    <style>
      .cls-1 {
        clip-path: url(#clippath);
      }

      .cls-2 {
        fill: none;
      }
    </style>
    <clipPath id="clippath">
      <rect class="cls-2" width="843.75" height="843.75"/>
    </clipPath>
  </defs>
  <g id="Camada_1-2" data-name="Camada 1">
    <g class="cls-1">
      <path fill="#FFFFFF" d="m843.75,421.88C843.75,188.88,654.87,0,421.88,0S0,188.88,0,421.88s188.88,421.87,421.87,421.87c232.89-.26,421.62-188.99,421.88-421.87m-810,0c0-214.36,173.77-388.13,388.12-388.13s388.12,173.77,388.12,388.13-173.77,388.12-388.12,388.12c-214.26-.23-387.89-173.87-388.12-388.12m400.06,180.69c-6.59,6.59-17.27,6.6-23.87.01,0,0,0,0-.01-.01l-135-135c-6.59-6.59-6.59-17.28,0-23.88,6.59-6.59,17.28-6.59,23.88,0l106.19,106.19V253.13c0-9.32,7.56-16.88,16.88-16.88s16.88,7.55,16.88,16.88v296.75l106.19-106.19c6.59-6.59,17.28-6.59,23.88,0,6.59,6.59,6.59,17.28,0,23.88l-135,135Z"/>
    </g>
  </g>
</svg>