<svg 
 xmlns="http://www.w3.org/2000/svg"
 xmlns:xlink="http://www.w3.org/1999/xlink"
 width="31px" height="24px">
<path fill-rule="evenodd"  fill="#c9bca4"
 d="M29.905,23.377 C29.486,23.788 28.966,23.997 28.357,23.997 L26.913,23.997 C26.304,23.997 25.783,23.788 25.366,23.377 C24.946,22.963 24.733,22.447 24.733,21.843 L24.733,20.337 C23.924,20.385 23.040,20.426 22.101,20.462 C20.996,20.504 19.861,20.535 18.726,20.556 C17.593,20.576 16.490,20.587 15.447,20.587 C14.403,20.587 13.300,20.576 12.166,20.556 C11.032,20.535 9.897,20.504 8.792,20.462 C7.853,20.426 6.970,20.385 6.161,20.337 L6.161,21.843 C6.161,22.446 5.948,22.962 5.528,23.377 C5.109,23.788 4.589,23.997 3.980,23.997 L2.520,23.997 C1.922,23.997 1.407,23.788 0.989,23.377 C0.568,22.963 0.356,22.447 0.356,21.843 L0.356,14.680 C0.356,13.610 0.479,12.692 0.724,11.950 C0.970,11.205 1.412,10.420 2.038,9.617 L2.970,8.395 C3.112,7.697 3.288,6.994 3.493,6.306 C3.705,5.588 3.917,4.929 4.123,4.348 C4.334,3.752 4.511,3.306 4.666,2.986 C5.022,2.224 5.558,1.589 6.256,1.105 C6.948,0.625 7.768,0.330 8.691,0.227 C8.974,0.194 9.434,0.165 10.096,0.138 C10.754,0.112 11.542,0.091 12.439,0.076 C13.349,0.060 14.361,0.052 15.447,0.052 C16.506,0.052 17.514,0.058 18.443,0.068 C19.364,0.078 20.153,0.097 20.790,0.123 C21.452,0.150 21.920,0.185 22.220,0.229 C23.133,0.353 23.944,0.653 24.626,1.118 C25.317,1.590 25.856,2.218 26.227,2.985 C26.374,3.314 26.551,3.767 26.761,4.343 C26.971,4.924 27.184,5.584 27.394,6.308 C27.592,6.994 27.769,7.694 27.921,8.392 L28.859,9.621 C29.481,10.421 29.923,11.205 30.169,11.950 C30.413,12.692 30.538,13.611 30.538,14.680 L30.538,21.843 C30.538,22.446 30.325,22.962 29.905,23.377 ZM29.471,14.680 C29.471,13.724 29.365,12.919 29.156,12.286 C28.949,11.658 28.565,10.981 28.015,10.275 L27.002,8.946 C26.954,8.884 26.921,8.811 26.904,8.735 C26.752,8.022 26.572,7.306 26.369,6.606 C26.166,5.904 25.961,5.266 25.759,4.709 C25.558,4.155 25.390,3.728 25.260,3.436 C24.975,2.847 24.569,2.372 24.025,2.002 C23.482,1.631 22.824,1.391 22.071,1.288 C21.805,1.248 21.362,1.217 20.746,1.191 C20.120,1.165 19.341,1.147 18.431,1.137 C17.506,1.127 16.502,1.122 15.447,1.122 C14.367,1.122 13.361,1.129 12.457,1.144 C11.568,1.160 10.788,1.180 10.139,1.207 C9.513,1.232 9.066,1.260 8.811,1.289 C8.063,1.372 7.408,1.606 6.863,1.984 C6.315,2.364 5.911,2.843 5.628,3.446 C5.491,3.732 5.323,4.154 5.128,4.705 C4.929,5.269 4.722,5.910 4.515,6.609 C4.308,7.308 4.132,8.021 3.991,8.727 C3.975,8.807 3.941,8.882 3.892,8.946 L2.882,10.270 C2.328,10.981 1.944,11.657 1.737,12.286 C1.528,12.919 1.422,13.724 1.422,14.680 L1.422,21.843 C1.422,22.158 1.522,22.403 1.736,22.615 C1.953,22.829 2.202,22.929 2.520,22.929 L3.980,22.929 C4.308,22.929 4.563,22.829 4.780,22.614 C4.994,22.403 5.094,22.158 5.094,21.843 L5.094,19.769 C5.094,19.622 5.155,19.481 5.262,19.380 C5.369,19.279 5.511,19.227 5.661,19.236 L5.823,19.246 C6.732,19.303 7.744,19.352 8.833,19.393 C9.930,19.435 11.058,19.467 12.186,19.486 C13.313,19.507 14.410,19.518 15.447,19.518 C16.483,19.518 17.580,19.507 18.707,19.486 C19.835,19.467 20.963,19.435 22.061,19.393 C23.150,19.352 24.162,19.303 25.069,19.247 L25.232,19.236 C25.244,19.235 25.255,19.235 25.266,19.235 C25.401,19.235 25.532,19.286 25.631,19.380 C25.738,19.481 25.799,19.622 25.799,19.769 L25.799,21.843 C25.799,22.158 25.899,22.403 26.114,22.615 C26.331,22.829 26.585,22.929 26.913,22.929 L28.357,22.929 C28.685,22.929 28.939,22.829 29.157,22.614 C29.371,22.403 29.471,22.158 29.471,21.843 L29.471,14.680 ZM24.225,17.317 C23.501,17.317 22.882,17.065 22.387,16.568 C21.892,16.072 21.641,15.452 21.641,14.726 C21.641,14.001 21.892,13.382 22.387,12.885 C22.883,12.388 23.501,12.136 24.225,12.136 C24.948,12.136 25.566,12.388 26.062,12.885 C26.558,13.382 26.809,14.001 26.809,14.726 C26.809,15.452 26.557,16.072 26.062,16.568 C25.567,17.065 24.949,17.317 24.225,17.317 ZM25.308,13.640 C25.016,13.348 24.661,13.205 24.225,13.205 C23.788,13.205 23.433,13.348 23.141,13.640 C22.849,13.933 22.707,14.289 22.707,14.726 C22.707,15.165 22.849,15.520 23.141,15.813 C23.433,16.105 23.788,16.247 24.225,16.247 C24.662,16.247 25.016,16.105 25.308,15.813 C25.600,15.520 25.742,15.164 25.742,14.726 C25.742,14.289 25.600,13.933 25.308,13.640 ZM24.333,8.723 C24.300,8.723 24.267,8.721 24.233,8.720 C23.561,8.679 22.830,8.637 22.030,8.595 C21.235,8.554 20.294,8.520 19.232,8.494 C18.170,8.469 16.896,8.456 15.447,8.456 C13.997,8.456 12.724,8.469 11.661,8.494 C10.598,8.520 9.655,8.554 8.855,8.595 C8.050,8.637 7.322,8.679 6.671,8.719 C6.262,8.739 5.972,8.657 5.769,8.476 C5.524,8.258 5.447,7.919 5.540,7.470 C5.638,7.033 5.761,6.563 5.908,6.064 C6.057,5.559 6.218,5.077 6.388,4.632 C6.565,4.164 6.725,3.812 6.877,3.554 C7.070,3.206 7.292,2.949 7.548,2.780 C7.795,2.617 8.106,2.508 8.473,2.456 C8.942,2.390 9.712,2.337 10.827,2.295 C11.916,2.253 13.471,2.232 15.447,2.232 C17.407,2.232 18.954,2.251 20.048,2.288 C21.168,2.325 21.947,2.381 22.428,2.457 C22.802,2.524 23.095,2.630 23.333,2.785 C23.582,2.947 23.805,3.198 24.015,3.553 C24.168,3.813 24.326,4.167 24.500,4.638 C24.663,5.080 24.821,5.560 24.969,6.064 C25.117,6.569 25.245,7.034 25.348,7.449 C25.494,8.033 25.294,8.340 25.102,8.494 C24.911,8.648 24.659,8.723 24.333,8.723 ZM23.946,6.367 C23.805,5.885 23.654,5.427 23.499,5.008 C23.351,4.604 23.215,4.298 23.097,4.098 C22.937,3.826 22.813,3.721 22.754,3.683 C22.641,3.609 22.467,3.550 22.251,3.511 C21.830,3.445 21.073,3.391 20.012,3.356 C18.931,3.320 17.395,3.301 15.447,3.301 C13.484,3.301 11.944,3.322 10.868,3.362 C9.804,3.404 9.048,3.455 8.622,3.514 C8.413,3.544 8.248,3.598 8.134,3.673 C8.060,3.721 7.943,3.833 7.803,4.085 C7.676,4.300 7.538,4.607 7.384,5.013 C7.224,5.433 7.072,5.888 6.931,6.367 C6.796,6.827 6.682,7.259 6.592,7.653 C6.599,7.653 6.607,7.653 6.615,7.652 C7.258,7.611 7.990,7.569 8.800,7.527 C9.609,7.486 10.563,7.452 11.635,7.426 C12.706,7.400 13.989,7.387 15.447,7.387 C16.905,7.387 18.187,7.400 19.258,7.426 C20.330,7.452 21.281,7.486 22.085,7.527 C22.085,7.527 22.085,7.527 22.085,7.527 C22.890,7.569 23.624,7.611 24.289,7.653 C24.293,7.653 24.296,7.653 24.300,7.653 C24.202,7.267 24.084,6.834 23.946,6.367 ZM8.506,12.885 C9.001,13.382 9.252,14.001 9.252,14.726 C9.252,15.452 9.001,16.072 8.506,16.568 C8.506,16.568 8.506,16.568 8.506,16.568 C8.011,17.065 7.392,17.317 6.668,17.317 C5.944,17.317 5.326,17.065 4.831,16.568 C4.335,16.072 4.084,15.452 4.084,14.726 C4.084,14.001 4.335,13.382 4.831,12.885 C5.326,12.388 5.944,12.136 6.668,12.136 C7.392,12.136 8.010,12.388 8.506,12.885 ZM5.151,14.726 C5.151,15.165 5.293,15.520 5.585,15.813 C5.877,16.105 6.231,16.247 6.668,16.247 C7.105,16.247 7.459,16.105 7.752,15.813 C8.044,15.520 8.186,15.164 8.186,14.726 C8.186,14.289 8.044,13.933 7.751,13.640 C7.459,13.348 7.105,13.205 6.668,13.205 C6.231,13.205 5.877,13.348 5.585,13.640 C5.293,13.933 5.151,14.289 5.151,14.726 ZM12.168,12.728 L18.725,12.728 C19.304,12.728 19.789,12.919 20.166,13.297 C20.543,13.676 20.734,14.162 20.734,14.742 C20.734,15.321 20.544,15.809 20.170,16.191 C20.170,16.191 20.170,16.191 20.170,16.191 C19.792,16.576 19.306,16.771 18.725,16.771 L12.168,16.771 C11.587,16.771 11.101,16.576 10.723,16.191 C10.349,15.809 10.159,15.321 10.159,14.742 C10.159,14.161 10.350,13.675 10.727,13.297 C11.104,12.919 11.589,12.728 12.168,12.728 ZM11.484,15.442 C11.658,15.620 11.876,15.702 12.168,15.702 L18.725,15.702 C19.017,15.702 19.235,15.620 19.408,15.442 C19.585,15.261 19.667,15.039 19.667,14.742 C19.667,14.447 19.586,14.228 19.412,14.053 C19.238,13.879 19.019,13.797 18.725,13.797 L12.168,13.797 C11.874,13.797 11.655,13.879 11.481,14.054 C11.307,14.228 11.226,14.447 11.226,14.742 C11.226,15.040 11.308,15.262 11.484,15.442 Z"/>
</svg>