<!DOCTYPE svg PUBLIC "-//W3C//DTD SVG 1.1//EN" "http://www.w3.org/Graphics/SVG/1.1/DTD/svg11.dtd">
<svg height="29px" width="29px" version="1.1" id="Layer_1" xmlns="http://www.w3.org/2000/svg" xmlns:xlink="http://www.w3.org/1999/xlink" viewBox="0 0 512 512" xml:space="preserve" fill="#c9bca4">
<g id="SVGRepo_bgCarrier" stroke-width="0"/>
<g id="SVGRepo_tracerCarrier" stroke-linecap="round" stroke-linejoin="round"/>
<g id="SVGRepo_iconCarrier"> <g transform="translate(1)"> <g> <path style="fill:#FFF;" d="M297.667,452.267H229.4c-9.387,0-17.067-7.68-17.067-17.067s7.68-17.067,17.067-17.067h68.267 c9.387,0,17.067,7.68,17.067,17.067S307.053,452.267,297.667,452.267"/> <path style="fill:#FFF;" d="M246.467,76.8c-5.12,0-8.533-3.413-8.533-8.533c0-33.28,26.453-59.733,59.733-59.733 c5.12,0,8.533,3.413,8.533,8.533s-3.413,8.533-8.533,8.533C273.773,25.6,255,44.373,255,68.267 C255,73.387,251.587,76.8,246.467,76.8z"/> <path style="fill:#FFF;" d="M246.467,76.8c-5.12,0-8.533-3.413-8.533-8.533c0-18.773-15.36-34.133-34.133-34.133 c-5.12,0-8.533-3.413-8.533-8.533s3.413-8.533,8.533-8.533c28.16,0,51.2,23.04,51.2,51.2C255,73.387,251.587,76.8,246.467,76.8z"/> <path style="fill:#FFF;" d="M92.867,418.133H24.6v-60.587c0-4.267,3.413-7.68,7.68-7.68h52.907c4.267,0,7.68,3.413,7.68,7.68 V418.133z"/> <path style="fill:#FFF;" d="M92.867,452.267H24.6c-9.387,0-17.067-7.68-17.067-17.067s7.68-17.067,17.067-17.067h68.267 c9.387,0,17.067,7.68,17.067,17.067S102.253,452.267,92.867,452.267"/> </g> <path style="fill:#FFF;" d="M33.133,435.2c0-9.387,7.68-17.067,17.067-17.067H24.6c-9.387,0-17.067,7.68-17.067,17.067 s7.68,17.067,17.067,17.067h25.6C40.813,452.267,33.133,444.587,33.133,435.2"/> <path style="fill:#FFF;" d="M289.133,435.2c0-9.387-7.68-17.067-17.067-17.067h25.6c9.387,0,17.067,7.68,17.067,17.067 s-7.68,17.067-17.067,17.067h-25.6C281.453,452.267,289.133,444.587,289.133,435.2"/> <g> <path style="fill:#FFF;" d="M195.267,418.133H127v-60.587c0-4.267,3.413-7.68,7.68-7.68h52.907c4.267,0,7.68,3.413,7.68,7.68 L195.267,418.133L195.267,418.133z"/> <path style="fill:#FFF;" d="M195.267,452.267H127c-9.387,0-17.067-7.68-17.067-17.067s7.68-17.067,17.067-17.067h68.267 c9.387,0,17.067,7.68,17.067,17.067S204.653,452.267,195.267,452.267"/> <path style="fill:#FFF;" d="M297.667,418.133H229.4v-60.587c0-4.267,3.413-7.68,7.68-7.68h52.907c4.267,0,7.68,3.413,7.68,7.68 V418.133z"/> <path style="fill:#FFF;" d="M138.947,163.84c11.947,0,22.187,11.093,22.187,24.747l0,0c0,13.653-10.24,24.747-22.187,24.747 H42.52h-2.56c-17.92,0-32.427-15.36-32.427-34.987S22.04,143.36,39.96,143.36c0,0,17.067-32.427,53.76-32.427 c23.04,0,42.667,17.067,42.667,52.907L138.947,163.84L138.947,163.84z"/> </g> <path style="fill:#FFF;" d="M33.133,178.347c0-19.627,14.507-34.987,32.427-34.987c0,0,12.8-23.893,39.253-30.72 c-4.267-0.853-7.68-1.707-11.947-1.707c-36.693,0-53.76,32.427-53.76,32.427c-17.92,0-32.427,15.36-32.427,34.987 s15.36,34.987,33.28,34.987h3.413H65.56C47.64,213.333,33.133,197.973,33.133,178.347"/> <path style="fill:#FFF;" d="M502.467,221.867c0,56.32-46.08,102.4-102.4,102.4s-102.4-46.08-102.4-102.4 s46.08-102.4,102.4-102.4S502.467,165.547,502.467,221.867"/> <path style="fill:#FFF;" d="M400.067,119.467c-4.267,0-8.533,0-12.8,0.853c50.347,5.973,89.6,49.493,89.6,101.547 s-39.253,95.573-89.6,101.547c4.267,0.853,8.533,0.853,12.8,0.853c56.32,0,102.4-46.08,102.4-102.4 S456.387,119.467,400.067,119.467"/> <path style="fill:#FFF;" d="M395.8,119.467c4.267,0,8.533,0,12.8,0.853c-50.347,5.973-89.6,49.493-89.6,101.547 s39.253,95.573,89.6,101.547c-4.267,0.853-8.533,0.853-12.8,0.853c-56.32,0-102.4-46.08-102.4-102.4S339.48,119.467,395.8,119.467"/> <path d="M92.867,426.667H24.6c-5.12,0-8.533-3.413-8.533-8.533v-60.587c0-8.533,7.68-16.213,16.213-16.213h52.907 c8.533,0,16.213,7.68,16.213,16.213v60.587C101.4,423.253,97.987,426.667,92.867,426.667z M33.133,409.6h51.2v-51.2h-51.2V409.6z"/> <path d="M92.867,460.8H24.6C10.093,460.8-1,449.707-1,435.2c0-14.507,11.093-25.6,25.6-25.6h68.267c14.507,0,25.6,11.093,25.6,25.6 C118.467,449.707,107.373,460.8,92.867,460.8z M24.6,426.667c-5.12,0-8.533,3.413-8.533,8.533c0,5.12,3.413,8.533,8.533,8.533 h68.267c5.12,0,8.533-3.413,8.533-8.533c0-5.12-3.413-8.533-8.533-8.533H24.6z"/> <path d="M24.6,512c-5.12,0-8.533-3.413-8.533-8.533v-51.2c0-5.12,3.413-8.533,8.533-8.533s8.533,3.413,8.533,8.533v51.2 C33.133,508.587,29.72,512,24.6,512z"/> <path d="M92.867,512c-5.12,0-8.533-3.413-8.533-8.533v-51.2c0-5.12,3.413-8.533,8.533-8.533s8.533,3.413,8.533,8.533v51.2 C101.4,508.587,97.987,512,92.867,512z"/> <path d="M195.267,426.667H127c-5.12,0-8.533-3.413-8.533-8.533v-60.587c0-8.533,7.68-16.213,16.213-16.213h52.907 c8.533,0,16.213,7.68,16.213,16.213v60.587C203.8,423.253,200.387,426.667,195.267,426.667z M135.533,409.6h51.2v-51.2h-51.2V409.6 z"/> <path d="M195.267,460.8H127c-14.507,0-25.6-11.093-25.6-25.6c0-14.507,11.093-25.6,25.6-25.6h68.267 c14.507,0,25.6,11.093,25.6,25.6C220.867,449.707,209.773,460.8,195.267,460.8z M127,426.667c-5.12,0-8.533,3.413-8.533,8.533 c0,5.12,3.413,8.533,8.533,8.533h68.267c5.12,0,8.533-3.413,8.533-8.533c0-5.12-3.413-8.533-8.533-8.533H127z"/> <path d="M127,512c-5.12,0-8.533-3.413-8.533-8.533v-51.2c0-5.12,3.413-8.533,8.533-8.533s8.533,3.413,8.533,8.533v51.2 C135.533,508.587,132.12,512,127,512z"/> <path d="M195.267,512c-5.12,0-8.533-3.413-8.533-8.533v-51.2c0-5.12,3.413-8.533,8.533-8.533c5.12,0,8.533,3.413,8.533,8.533v51.2 C203.8,508.587,200.387,512,195.267,512z"/> <path d="M297.667,426.667H229.4c-5.12,0-8.533-3.413-8.533-8.533v-60.587c0-8.533,7.68-16.213,16.213-16.213h52.907 c8.533,0,16.213,7.68,16.213,16.213v60.587C306.2,423.253,302.787,426.667,297.667,426.667z M237.933,409.6h51.2v-51.2h-51.2V409.6 z"/> <path d="M297.667,460.8H229.4c-14.507,0-25.6-11.093-25.6-25.6c0-14.507,11.093-25.6,25.6-25.6h68.267 c14.507,0,25.6,11.093,25.6,25.6C323.267,449.707,312.173,460.8,297.667,460.8z M229.4,426.667c-5.12,0-8.533,3.413-8.533,8.533 c0,5.12,3.413,8.533,8.533,8.533h68.267c5.12,0,8.533-3.413,8.533-8.533c0-5.12-3.413-8.533-8.533-8.533H229.4z"/> <path d="M229.4,512c-5.12,0-8.533-3.413-8.533-8.533v-51.2c0-5.12,3.413-8.533,8.533-8.533c5.12,0,8.533,3.413,8.533,8.533v51.2 C237.933,508.587,234.52,512,229.4,512z"/> <path d="M297.667,512c-5.12,0-8.533-3.413-8.533-8.533v-51.2c0-5.12,3.413-8.533,8.533-8.533s8.533,3.413,8.533,8.533v51.2 C306.2,508.587,302.787,512,297.667,512z"/> <path d="M400.067,332.8c-61.44,0-110.933-49.493-110.933-110.933s49.493-110.933,110.933-110.933S511,160.427,511,221.867 S461.507,332.8,400.067,332.8z M400.067,128c-52.053,0-93.867,41.813-93.867,93.867s41.813,93.867,93.867,93.867 s93.867-41.813,93.867-93.867S452.12,128,400.067,128z"/> <path d="M400.067,264.533c-2.56,0-4.267-0.853-5.973-2.56l-25.6-25.6c-3.413-3.413-3.413-8.533,0-11.947s8.533-3.413,11.947,0 l25.6,25.6c3.413,3.413,3.413,8.533,0,11.947C404.333,263.68,402.627,264.533,400.067,264.533z"/> <path d="M400.067,264.533c-2.56,0-4.267-0.853-5.973-2.56c-3.413-3.413-3.413-8.533,0-11.947l25.6-25.6 c3.413-3.413,8.533-3.413,11.947,0c3.413,3.413,3.413,8.533,0,11.947l-25.6,25.6C404.333,263.68,402.627,264.533,400.067,264.533z"/> <path d="M400.067,512c-5.12,0-8.533-3.413-8.533-8.533V256c0-5.12,3.413-8.533,8.533-8.533S408.6,250.88,408.6,256v247.467 C408.6,508.587,405.187,512,400.067,512z"/> <path d="M138.947,221.867H39.96C16.92,221.867-1,202.24-1,178.347c0-22.187,15.36-40.96,35.84-43.52 c6.827-9.387,25.6-32.427,58.027-32.427c23.893,0,47.787,17.067,51.2,53.76c14.507,2.56,25.6,16.213,25.6,32.427 C169.667,207.36,156.013,221.867,138.947,221.867z M92.867,119.467c-30.72,0-45.227,26.453-46.08,28.16 c-1.707,2.56-4.267,4.267-7.68,4.267c-12.8,0-23.893,11.947-23.893,26.453c0,14.507,11.093,26.453,24.747,26.453h98.987 c7.68,0,13.653-6.827,13.653-16.213c0-9.387-5.973-16.213-13.653-16.213h-3.413c-5.12,0-8.533-3.413-8.533-8.533 C127,136.533,114.2,119.467,92.867,119.467z"/> <path d="M246.467,68.267c-5.12,0-8.533-3.413-8.533-8.533C237.933,26.453,264.387,0,297.667,0c5.12,0,8.533,3.413,8.533,8.533 s-3.413,8.533-8.533,8.533C273.773,17.067,255,35.84,255,59.733C255,64.853,251.587,68.267,246.467,68.267z"/> <path d="M246.467,68.267c-5.12,0-8.533-3.413-8.533-8.533c0-18.773-15.36-34.133-34.133-34.133c-5.12,0-8.533-3.413-8.533-8.533 s3.413-8.533,8.533-8.533c28.16,0,51.2,23.04,51.2,51.2C255,64.853,251.587,68.267,246.467,68.267z"/> </g> </g>
</svg>