<svg 
 xmlns="http://www.w3.org/2000/svg"
 xmlns:xlink="http://www.w3.org/1999/xlink"
 width="32px" height="25px" viewBox="0 0 31 24">
<path fill-rule="evenodd"  fill="#c9bca4"
 d="M28.493,9.774 L28.493,3.530 C28.493,1.612 26.935,0.052 25.020,0.052 L6.533,0.052 C4.618,0.052 3.060,1.612 3.060,3.530 L3.060,9.774 C1.693,10.154 0.685,11.409 0.685,12.898 L0.685,16.745 C0.685,17.508 1.187,18.156 1.877,18.376 L1.877,22.540 C1.877,23.343 2.529,23.997 3.331,23.997 L4.547,23.997 C5.349,23.997 6.002,23.343 6.002,22.540 L6.002,21.359 C6.002,21.147 6.173,20.975 6.385,20.975 L25.167,20.975 C25.379,20.975 25.551,21.147 25.551,21.359 L25.551,22.540 C25.551,23.343 26.204,23.997 27.005,23.997 L28.221,23.997 C29.023,23.997 29.676,23.343 29.676,22.540 L29.676,18.376 C30.366,18.156 30.867,17.508 30.867,16.745 L30.867,12.898 C30.867,11.409 29.860,10.154 28.493,9.774 ZM4.115,3.530 C4.115,2.195 5.199,1.109 6.533,1.109 L25.020,1.109 C26.353,1.109 27.438,2.195 27.438,3.530 L27.438,9.653 L25.138,9.653 L25.138,7.361 C25.138,6.305 24.280,5.446 23.226,5.446 L18.307,5.446 C17.252,5.446 16.394,6.305 16.394,7.361 L16.394,9.653 L15.159,9.653 L15.159,7.361 C15.159,6.305 14.300,5.446 13.246,5.446 L8.327,5.446 C7.272,5.446 6.414,6.305 6.414,7.361 L6.414,9.653 L4.115,9.653 L4.115,3.530 ZM24.083,7.361 L24.083,9.653 L17.449,9.653 L17.449,7.361 C17.449,6.888 17.834,6.502 18.307,6.502 L23.226,6.502 C23.698,6.502 24.083,6.888 24.083,7.361 ZM14.103,7.361 L14.103,9.653 L7.469,9.653 L7.469,7.361 C7.469,6.888 7.854,6.502 8.327,6.502 L13.246,6.502 C13.719,6.502 14.103,6.888 14.103,7.361 ZM28.621,22.540 C28.621,22.760 28.441,22.940 28.221,22.940 L27.005,22.940 C26.785,22.940 26.606,22.760 26.606,22.540 L26.606,21.359 C26.606,20.564 25.961,19.918 25.167,19.918 L6.385,19.918 C5.592,19.918 4.946,20.564 4.946,21.359 L4.946,22.540 C4.946,22.760 4.767,22.940 4.547,22.940 L3.331,22.940 C3.111,22.940 2.932,22.760 2.932,22.540 L2.932,18.458 L28.621,18.458 L28.621,22.540 ZM29.812,16.745 C29.812,17.106 29.518,17.400 29.157,17.400 L29.148,17.400 L2.404,17.400 L2.395,17.400 C2.034,17.400 1.741,17.106 1.741,16.745 L1.741,12.898 C1.741,11.691 2.720,10.709 3.925,10.709 L27.627,10.709 C28.832,10.709 29.812,11.691 29.812,12.898 L29.812,16.745 Z"/>
</svg>