<?xml version="1.0" encoding="UTF-8"?>
<svg id="Camada_2" data-name="Camada 2" xmlns="http://www.w3.org/2000/svg" xmlns:xlink="http://www.w3.org/1999/xlink" width="53px" height="60px" viewBox="0 0 541 611">
  <defs>
    <style>
      .cls-1 {
        clip-path: url(#clippath);
      }

      .cls-2 {
        fill: none;
      }

      .cls-3 {
        fill: #c9bca4;
      }
    </style>
    <clipPath id="clippath">
      <rect class="cls-2" width="541" height="611"/>
    </clipPath>
  </defs>
  <g id="Camada_1-2" data-name="Camada 1">
    <g class="cls-1">
      <path class="cls-3" d="m210.33,154c-6.76,0-12.29,4.13-12.29,9.15s5.52,9.13,12.29,9.13h120.3c6.79,0,12.33-4.11,12.33-9.13s-5.54-9.15-12.33-9.15h-120.3Z"/>
      <path class="cls-3" d="m260.1,61.42c-5.16,16.42-3.91,44.43,4.61,88.69h11.53c8.5-44.26,9.75-72.27,4.64-88.69-1.4-4.47-5.89-6.68-10.36-6.68s-9.01,2.23-10.41,6.68"/>
      <path class="cls-3" d="m171.33,80.5c-2.74,3.03-4.68,6.69-5.5,10.89-1.41,6.89.58,14.71,5.05,21.25,4.13,6.1,10.19,11,16.54,15.02,8.63,5.43,17.31,10.22,20.78,22.45h2.75c-1.19-19.57-28.78-33.48-27.86-54.45.49-10.87,7.91-18.31,21.01-18.26.82-1.2,1.74-2.34,2.77-3.42-4.95-1.53-9.82-2.39-14.43-2.39-8.12,0-15.44,2.63-21.11,8.9"/>
      <path class="cls-3" d="m230.72,64.92c-7.55.78-14.6,3.58-19.87,8.59-14.21,13.46-10.24,31.88.19,45.07,4.31,5.4,9.97,9.15,14.41,14.35,3.78,4.45,6.46,9.72,6.23,17.15h2.94c5.12-20.67-21.76-39.11-14.04-60.95,4.65-13.14,17.53-19.96,34.33-14.01.42-1.65.7-3.38,1.1-5.04-5.65-3.45-13.18-5.4-20.79-5.4-1.49,0-3,.08-4.5.23"/>
      <path class="cls-3" d="m334.13,74c1.01,1.09,1.96,2.21,2.79,3.42,13.06-.05,20.51,7.39,20.99,18.26.89,20.96-26.68,34.89-27.87,54.45h2.77c3.46-12.24,12.11-17.02,20.77-22.45,6.35-4.03,12.41-8.91,16.56-15.02,4.46-6.54,6.42-14.36,5.06-21.25-.84-4.19-2.79-7.86-5.51-10.89-5.66-6.27-13.02-8.9-21.12-8.9-4.63,0-9.5.86-14.43,2.39"/>
      <path class="cls-3" d="m284.98,70.09c.41,1.66.66,3.37,1.09,5.02,16.81-5.93,29.67.87,34.31,14.03,7.76,21.84-19.11,40.27-14.03,60.95h2.96c-.22-7.44,2.43-12.71,6.22-17.15,4.48-5.2,10.11-8.96,14.41-14.37,10.43-13.2,14.41-31.59.19-45.05-5.21-5.02-12.29-7.81-19.83-8.59-1.51-.15-3.02-.23-4.53-.23-7.62,0-15.12,1.93-20.79,5.4"/>
      <path class="cls-3" d="m423.68,484.41c-1.48,4.69.65,7.29-.67,14.82-1.19,6.85-5.95,12.11-11.5,17.3-17.37,16.17-46.55,24.4-71.04,35.77-5.15,2.03-10.37,4.75-16.04,8.15-4.13,2.53-8.3,5.07-12.02,8.22-22.58,19.2-21.17,34.33-21.17,34.33,3.96-7.78,10.6-15.9,18.55-22.99,10.14-9.09,22.53-16.96,35.66-19.83,9.89-2.19,18.63-.81,23.45,5.52,3.78,4.96,17.82,3.44,15.51-1.88,11.17,0,21.44-13.75,15.45-23.62,1.24,11.73-12.35,9.31-24.82,7.99-5.54-.58-10.55-.7-15.31-.35,29.68-10.71,62-23.41,72.54-46.62,5.93-14.98,1.01-23.5-3.5-23.52-2.27,0-4.44,2.16-5.09,6.72"/>
      <path class="cls-3" d="m112.24,477.69c-4.51.01-9.43,8.53-3.5,23.52,10.55,23.22,42.86,35.92,72.54,46.62-4.76-.34-9.76-.23-15.31.35-12.47,1.32-26.06,3.74-24.82-7.99-6,9.88,4.28,23.63,15.45,23.63-2.32,5.33,11.73,6.85,15.51,1.88,4.82-6.32,13.56-7.71,23.45-5.51,13.13,2.86,25.52,10.73,35.66,19.83,7.95,7.09,14.59,15.21,18.55,22.99,0,0,1.41-15.13-21.17-34.33-3.71-3.16-7.88-5.69-12.02-8.22-5.67-3.4-10.89-6.12-16.04-8.15-24.5-11.37-53.67-19.6-71.04-35.77-5.56-5.19-10.32-10.45-11.5-17.3-1.32-7.53.81-10.13-.67-14.82-.65-4.56-2.81-6.72-5.09-6.72"/>
      <path class="cls-3" d="m141.23,249.9c29.7.08,59.98-4.67,87.4-16.39,8.53-3.65,17.22-8.36,24.78-13.74,2.67-1.88,6.22-4.66,8.6-6.91,2.86-2.52,6.11-5.92,8.49-8.9,10.86,13.39,26.22,22.73,41.87,29.54,8.11,3.47,17.14,6.57,25.67,8.83,4.15,1.13,9.91,2.34,14.12,3.21,17.03,3.32,34.86,4.67,52.2,4.29v148.79l-.15,6.94c-.19,3.4-.9,10.11-1.37,13.47l-1.19,6.59-1.51,6.48-1.8,6.35-2.09,6.22c-1.15,3.06-3.72,9.04-5.1,12l-2.95,5.73c-31.63,58.14-100.47,84.3-163.72,61.94-11.88-4.43-23.95-10.84-34.09-18.49-8.25-6.18-16.62-14.18-23.2-22.11l-3.96-5.05-3.73-5.25-3.51-5.41-3.19-5.63-2.95-5.73c-1.44-3.01-3.93-8.84-5.12-12l-2.09-6.22-1.8-6.35-1.52-6.48-1.19-6.59c-.46-3.31-1.17-10.13-1.35-13.47l-.16-6.94v-148.79c.62.02,1.34-.02,1.96.06h2.64Zm129.28-64.76l-.12-.18c-1.5,1.73-10.93,13.55-12.21,14.75-1.04,1.09-3.17,3.16-4.29,4.17-8.73,7.81-19.32,13.86-30.05,18.49-20.77,8.92-43.52,13.42-66.01,14.91-5.35.35-12.02.48-17.37.47-3.21-.01-12.68-.3-15.97-.37v161.4l.22,7.39.51,7.38c.4,3.67,1.52,10.89,2.22,14.5.76,3.55,2.58,10.51,3.62,13.98,1.08,3.43,3.53,10.11,4.9,13.43,1.41,3.27,4.51,9.61,6.19,12.74l3.51,6.13,3.79,5.93c2,2.9,6.2,8.48,8.41,11.2l4.59,5.31c2.37,2.59,7.3,7.52,9.88,9.89l5.29,4.58c2.73,2.23,8.37,6.42,11.28,8.41l5.88,3.79,6.11,3.51,6.32,3.22c3.83,1.86,9.19,4.01,13.08,5.56,63.95,22.34,133.79.01,171.27-55.48,5-7.37,9.96-16.63,13.51-24.8,1.34-3.27,3.84-10.06,4.91-13.43,1.02-3.42,2.85-10.48,3.57-13.98l1.3-7.22.91-7.28.56-7.38.22-7.39v-161.4c-3.34.08-12.87.34-15.99.37-5.33.01-11.99-.11-17.32-.47-22.5-1.48-45.27-5.98-66.04-14.91-10.73-4.63-21.31-10.7-30.06-18.49-1.05-1-3.26-3.12-4.27-4.17-1.56-1.44-10.64-12.93-12.18-14.75l-.16.18Z"/>
      <path class="cls-3" d="m224.93,300.6c-20.04,12.59-37.59,38.02-37.59,74.05,0,28.12,13.05,52.21,26.78,64.16,24.97,21.83,56.96,24.08,74.07,24.08,13.05,0,36.43-2.47,50.83-10.11,2.7-1.59,2.93-2.02,2.93-12.18v-25.2c0-9.46,0-16.22.45-23.42.45-7.86,2.23-11.69,8.31-12.82,2.72-.45,2.93-1.13,2.93-2.05,0-1.32-1.13-1.78-3.62-1.78h-40.17c-2.51,0-3.63.46-3.63,1.78,0,.92,3.13,1.61,4.95,2.05,8.99,2.47,9.76,4.96,9.76,23.18v37.22c0,3.85-1.58,6.3-4.48,7.88-5.87,3.38-16.53,4.73-24.63,4.73-20.7,0-40.58-6.75-58.37-24.09-7.87-7.66-23.85-29.57-23.85-61.31,0-26.34,9.23-45.99,22.27-56.35,17.14-13.51,33.39-14.85,47.56-14.85,29.02,0,47.28,9.67,52.89,18.23,3.39,5.4,5.2,10.45,6.33,10.45,1.55,0,2.01-1.12,2.01-4.73,0-22.5,1.6-21.86,1.6-25.01,0-.89-.46-1.8-2.73-2.03-5.61-.22-13.5-1.11-18.23-2.23-4.28-.91-22.32-3.84-36.5-3.84-17.35,0-39.65,1.57-59.89,14.19"/>
      <path class="cls-3" d="m277.53,29.4c.47,6.9-6.34,14.15-6.39,21.43h-1.33c-.02-7.27-6.81-14.5-6.34-21.39-.47-6.9,6.34-14.15,6.39-21.43h1.33c.02,7.27,6.81,14.5,6.35,21.4"/>
    </g>
  </g>
</svg>