<?xml version="1.0" encoding="UTF-8"?>
<svg id="Camada_2" data-name="Camada 2" xmlns="http://www.w3.org/2000/svg" xmlns:xlink="http://www.w3.org/1999/xlink" width="155" viewBox="0 0 1223.97 499.59">
  <defs>
    <style>
      .cls-1 {
        clip-path: url(#clippath);
      }

      .cls-2 {
        fill: none;
      }

      .cls-3 {
        fill: #c9bca4;
      }
    </style>
    <clipPath id="clippath">
      <rect class="cls-2" width="1223.97" height="499.59"/>
    </clipPath>
  </defs>
  <g id="Camada_1-2" data-name="Camada 1">
    <g class="cls-1">
      <path class="cls-3" d="m602.5,309.27c-1.81,0-2.16,1.96-2.42,3.4-1.4,8.16-8.5,10.1-10.64,10.5-10.74,2.01-44.68,1.48-50.18,1.38v-61.13c0-.41.12-.53.53-.53,2.77,0,36.14.37,41.18.93,6.96.7,8.59,3.72,9.22,5.92v.02c.63,2,1.19,2.63,2.32,2.6.06,0,.11,0,.14,0,.23.02.59-.04.93-.36.81-.76,1.18-2.76,1.18-3.94,0-.62.65-5.1,1.17-8.71.65-4.52,1.05-7.32,1.05-7.87,0-2.04-1.18-2.26-1.69-2.26-1.03,0-1.78.87-3.03,2.3l-.31.36c-1.16,1.29-2.98,1.41-5.98,1.61-.67.04-1.42.09-2.22.16-4.1.36-40.04.37-44.12.37-.17,0-.22-.03-.22-.02-.03-.04-.13-.22-.13-1.06v-50.94c5.43.03,37.58.2,40.4.54,7.02.78,11.71,2.03,13.36,5.81.32.75.48,1.37.62,1.87.26.96.53,1.96,1.82,1.96,1.02,0,1.72-.89,2.06-2.66v-.02c.42-2.46.76-4.84.93-6.53.31-2.94.75-5.18,1.07-6.82.26-1.32.42-2.18.42-2.81,0-2.12-.96-2.44-1.54-2.44-.69,0-1.26.3-1.76.55-.33.17-.64.33-.95.39h-.05c-1.5.39-4.49.74-7.8.91-2.8.13-72.91-.38-75.72-.38-1.12,0-3.73,0-3.73,2.27,0,1.73,1.98,2.24,2.63,2.41h.03c4.73,1,6.92,2.66,7.34,9.84.18,2.86.28,28.84.21,55.59-.08,32.35-.36,53.62-.75,56.92-.41,2.9-1.18,5.35-2.24,7.11-1.2,1.99-2.72,3-4.51,3-1.46,0-2.8.97-2.8,2.03,0,2.26,2.7,2.26,3.72,2.26,4.8,0,75.85.43,88.99.52h.02c.88,0,1.71-.34,2.33-.96.63-.62.98-1.46.98-2.35v-18.2c0-1.32,0-3.53-1.86-3.53"/>
      <path class="cls-3" d="m963.88,309.27c-1.81,0-2.16,1.96-2.42,3.4-1.4,8.16-8.5,10.1-10.64,10.5-10.74,2.01-44.68,1.48-50.18,1.38v-61.13c0-.41.12-.53.53-.53,2.77,0,36.14.37,41.18.93,6.96.7,8.59,3.72,9.22,5.92v.02c.63,2,1.19,2.63,2.32,2.6.06,0,.11,0,.14,0,.23.02.59-.04.93-.36.81-.76,1.18-2.76,1.18-3.94,0-.62.65-5.1,1.17-8.71.65-4.52,1.05-7.32,1.05-7.87,0-2.04-1.18-2.26-1.69-2.26-1.03,0-1.78.87-3.03,2.3l-.31.36c-1.16,1.29-2.98,1.41-5.98,1.61-.67.04-1.42.09-2.22.16-4.1.36-40.04.37-44.12.37-.17,0-.22-.03-.22-.02-.03-.04-.13-.22-.13-1.06v-50.94c5.43.03,37.58.2,40.4.54,7.02.78,11.71,2.03,13.36,5.81.31.75.48,1.37.62,1.87.26.96.53,1.96,1.82,1.96,1.02,0,1.72-.89,2.06-2.66v-.02c.42-2.46.76-4.84.93-6.53.31-2.94.75-5.18,1.07-6.82.26-1.32.42-2.18.42-2.81,0-2.12-.96-2.44-1.54-2.44-.69,0-1.26.3-1.77.55-.33.17-.64.33-.95.39h-.05c-1.5.39-4.49.74-7.8.91-2.8.13-72.91-.38-75.72-.38-1.11,0-3.73,0-3.73,2.27,0,1.73,1.98,2.24,2.63,2.41h.03c4.73,1,6.92,2.66,7.34,9.84.18,2.86-.15,109.21-.53,112.51-.41,2.9-1.18,5.35-2.24,7.11-1.2,1.99-2.72,3-4.51,3-1.46,0-2.8.97-2.8,2.03,0,2.26,2.71,2.26,3.72,2.26,4.8,0,75.85.43,88.99.52h.02c.88,0,1.71-.34,2.33-.96.63-.62.98-1.46.98-2.35v-18.2c0-1.32,0-3.53-1.86-3.53"/>
      <path class="cls-3" d="m1092.62,309.28c-1.67,0-2.1,1.61-2.42,3.4-1.4,8.16-8.5,10.1-10.64,10.5-10.74,2.01-44.68,1.48-50.18,1.38v-128.56c0-1.9-1.55-3.45-3.44-3.46-11.66-.09-20.81-.16-23.7-.16-1.12,0-3.73,0-3.73,2.26,0,1.73,1.98,2.25,2.63,2.41h.03c4.73,1,6.92,2.66,7.34,9.84.18,2.86-.15,109.21-.54,112.51-.41,2.9-1.18,5.35-2.24,7.1-1.2,1.99-2.72,2.99-4.52,2.99-1.46,0-2.8.97-2.8,2.03,0,2.27,2.71,2.27,3.72,2.27,4.89,0,75.31.42,88.99.52h.03c.88,0,1.7-.34,2.33-.96.63-.63.98-1.46.98-2.35v-18.2c0-1.32,0-3.53-1.86-3.53"/>
      <path class="cls-3" d="m469.16,262.44h-33.59c-1.14,0-3.8,0-3.8,2.24,0,1.22,1.74,1.73,4.39,2.36l.33.08c6.95,1.89,7.59,3.44,7.59,18.38v30.7c0,2.75-1.06,4.6-3.34,5.82h-.02c-4.93,2.81-13.97,3.81-20.21,3.81-8.9,0-17.32-1.52-25.04-4.52-8.35-3.25-16.16-8.34-23.23-15.13-2.02-1.94-19.71-19.79-19.71-50.02,0-10.35,1.73-19.73,5.16-27.88,3.14-7.48,7.69-13.71,13.16-17.99,14.35-11.15,27.81-12.09,39.29-12.09s21.03,1.67,29.18,4.82c6.71,2.59,11.96,6.19,14.41,9.87,1.16,1.83,2.11,3.64,2.88,5.09,1.4,2.67,2.04,3.88,3.06,3.88,2.45,0,2.45-2.7,2.45-4.67,0-13.43.7-16.79,1.08-18.6.15-.72.26-1.25.26-2.03,0-.98-.52-2.19-2.97-2.44h-.05c-5-.2-11.49-.98-15.1-1.82h-.02c-3.9-.82-19.02-3.19-30.68-3.19-14.56,0-33.45,1.34-50.48,11.83h0c-9.06,5.62-16.76,13.77-22.27,23.57-6.32,11.26-9.53,24.1-9.53,38.17,0,10.84,2.41,21.83,6.96,31.79,4.01,8.75,9.58,16.47,15.7,21.72,15.42,13.3,36.43,20.04,62.44,20.04,9.94,0,30.14-1.77,42.86-8.43h.03c2.65-1.55,2.83-2.25,2.83-10.72,0,0,0-34.14.38-40.07.38-6.65,1.91-9.05,6.31-9.86,2.25-.37,3.09-1.03,3.09-2.45,0-2.24-2.66-2.24-3.8-2.24"/>
      <path class="cls-3" d="m1222.11,309.27c-1.81,0-2.16,1.96-2.42,3.4-1.4,8.16-8.5,10.1-10.64,10.5-10.74,2.01-44.68,1.48-50.18,1.38v-61.13c0-.41.12-.53.53-.53,2.77,0,36.14.37,41.18.93,6.96.7,8.59,3.72,9.22,5.92v.02c.63,2,1.19,2.63,2.31,2.6.06,0,.11,0,.14,0,.23.02.59-.04.93-.36.81-.76,1.18-2.76,1.18-3.94,0-.62.65-5.1,1.17-8.71.65-4.52,1.05-7.32,1.05-7.87,0-2.04-1.18-2.26-1.69-2.26-1.03,0-1.78.87-3.03,2.3l-.31.36c-1.16,1.29-2.98,1.41-5.99,1.61-.67.04-1.42.09-2.22.16-4.1.36-40.04.37-44.12.37-.17,0-.22-.02-.22-.02-.03-.04-.13-.22-.13-1.06v-50.94c5.43.03,37.58.2,40.4.54,7.02.78,11.71,2.03,13.36,5.81.32.75.48,1.37.62,1.87.26.96.53,1.96,1.82,1.96,1.02,0,1.72-.89,2.06-2.66v-.02c.42-2.46.76-4.84.93-6.53.31-2.94.75-5.18,1.07-6.82.26-1.31.42-2.18.42-2.81,0-2.12-.96-2.44-1.54-2.44-.69,0-1.26.3-1.77.55-.33.17-.64.33-.95.39h-.05c-1.5.39-4.49.74-7.8.91-2.8.13-72.91-.38-75.72-.38-1.12,0-3.73,0-3.73,2.27,0,1.73,1.98,2.24,2.63,2.41h.03c4.73,1,6.92,2.66,7.34,9.84.18,2.86-.15,109.21-.53,112.51-.41,2.9-1.18,5.35-2.24,7.11-1.2,1.99-2.72,3-4.51,3-1.47,0-2.8.97-2.8,2.03,0,2.26,2.7,2.26,3.72,2.26,4.8,0,75.85.43,88.99.52h.02c.88,0,1.71-.34,2.33-.96.63-.62.98-1.46.98-2.35v-18.2c0-1.32,0-3.53-1.86-3.53"/>
      <path class="cls-3" d="m806.17,255.1l-6.44-4.94c-10.12-7.78-16.14-13.19-20.12-18.07-4.23-5.19-6.11-9.79-6.11-14.91,0-6.07,2.74-11.2,7.92-14.83,4.73-3.32,11.14-5.15,18.04-5.15,17.96,0,22.8,2.97,27.43,10.07.52.79.85,1.84,1.14,2.77.46,1.47.9,2.87,2.14,2.87,2.16,0,2.16-3.29,2.16-5.05,0-9.87.49-12.16.69-13.14.06-.29.11-.52.11-.79,0-2.08-1.93-2.08-2.76-2.08-1.6,0-3.25-.22-6.78-.9-5.11-1.16-16.45-1.88-24.04-1.88-6.28,0-12.19.79-17.58,2.35-5.33,1.54-10.03,3.81-13.96,6.72-3.99,2.96-7.1,6.52-9.23,10.58-2.21,4.2-3.32,8.86-3.32,13.85,0,7.13,1.76,13.24,5.54,19.23,4.29,6.8,11.41,13.73,21.78,21.19,2.69,1.93,10.67,7.16,11.28,7.56,16.74,12.95,24.08,19.95,24.08,32.46,0,5.8-3,11.74-8.22,16.29-5.77,5.02-13.66,7.79-22.23,7.79-5.14,0-12.62-.66-19.07-3.81-6.18-3.01-9.97-7.61-11.28-13.69-.59-2.53-.91-3.93-2.74-3.93-1.97,0-2.22,2.37-2.36,3.65v.03c-.06.84-.16,1.59-.28,2.45-.29,2.08-.7,4.93-.7,11.56,0,4.98.13,6.21,3.43,7.75,7.67,3.51,21.74,5.08,32.29,5.08,13.74,0,23.96-2.31,31.23-7.06,12.66-8.42,17.16-21.77,17.16-31.46,0-8.24-1.74-14.37-5.82-20.49-4.32-6.48-11.53-13.29-23.38-22.05"/>
      <path class="cls-3" d="m690.44,255.1l-6.44-4.94c-10.12-7.78-16.14-13.19-20.12-18.07-4.23-5.19-6.11-9.79-6.11-14.91,0-6.07,2.74-11.2,7.92-14.83,4.73-3.32,11.14-5.15,18.04-5.15,17.96,0,22.8,2.97,27.43,10.07.52.79.85,1.84,1.14,2.77.46,1.47.9,2.87,2.14,2.87,2.16,0,2.16-3.29,2.16-5.05,0-9.87.49-12.16.69-13.14.06-.29.11-.52.11-.79,0-2.08-1.93-2.08-2.76-2.08-1.6,0-3.25-.22-6.78-.9-5.11-1.16-16.45-1.88-24.04-1.88-6.28,0-12.19.79-17.58,2.35-5.33,1.54-10.03,3.81-13.96,6.72-3.99,2.96-7.1,6.52-9.23,10.58-2.21,4.2-3.33,8.86-3.33,13.85,0,7.13,1.76,13.24,5.54,19.23,4.29,6.8,11.41,13.73,21.78,21.19,2.68,1.93,10.67,7.16,11.28,7.56,16.74,12.95,24.08,19.95,24.08,32.46,0,5.8-3,11.74-8.22,16.29-5.77,5.02-13.66,7.79-22.23,7.79-5.14,0-12.62-.66-19.07-3.81-6.18-3.01-9.97-7.61-11.28-13.69-.59-2.53-.91-3.93-2.74-3.93-1.97,0-2.22,2.37-2.36,3.65v.03c-.06.84-.16,1.59-.28,2.45-.29,2.08-.7,4.93-.7,11.56,0,4.98.13,6.21,3.42,7.75,7.67,3.51,21.74,5.08,32.29,5.08,13.74,0,23.96-2.31,31.23-7.06,12.66-8.42,17.16-21.77,17.16-31.46,0-8.24-1.74-14.37-5.82-20.49-4.32-6.48-11.53-13.29-23.38-22.05"/>
      <polygon class="cls-3" points="419.1 381.99 442.54 381.99 442.54 387.69 425.52 387.69 425.52 395.4 439.45 395.4 439.45 400.91 425.52 400.91 425.52 408.62 442.54 408.62 442.54 414.32 419.1 414.32 419.1 381.99"/>
      <polygon class="cls-3" points="465.6 381.99 475.01 381.99 483.05 405.43 491.04 381.99 500.45 381.99 500.45 414.32 494.04 414.32 494.04 391.21 486.14 414.32 479.91 414.32 472.02 391.21 472.02 414.32 465.6 414.32 465.6 381.99"/>
      <path class="cls-3" d="m525.18,381.99h13.03c8.89,0,13.27,3.19,13.27,11.08s-4.38,11.36-13.27,11.36h-6.61v9.89h-6.42v-32.33Zm13.03,16.88c4.28,0,6.61-1.71,6.61-5.71s-2.33-5.47-6.61-5.47h-6.61v11.17h6.61Z"/>
      <path class="cls-3" d="m574.77,381.99h12.93c8.65,0,13.22,2.71,13.22,10.41,0,5.47-2.38,8.51-6.8,9.84,1,.67,1.85,1.52,2.57,2.66l5.47,9.42h-7.08l-4.47-7.75c-1.71-3-4.14-3.42-8.13-3.42h-1.28v11.17h-6.42v-32.34Zm12.93,15.6c4.04,0,6.56-1.28,6.56-5.09s-2.52-4.8-6.56-4.8h-6.52v9.89h6.52Z"/>
      <polygon class="cls-3" points="624.75 381.99 648.19 381.99 648.19 387.69 631.17 387.69 631.17 395.4 645.1 395.4 645.1 400.91 631.17 400.91 631.17 408.62 648.19 408.62 648.19 414.32 624.75 414.32 624.75 381.99"/>
      <polygon class="cls-3" points="671.25 381.99 694.69 381.99 694.69 387.69 677.67 387.69 677.67 395.4 691.6 395.4 691.6 400.91 677.67 400.91 677.67 408.62 694.69 408.62 694.69 414.32 671.25 414.32 671.25 381.99"/>
      <polygon class="cls-3" points="725.46 381.99 738.67 404.67 738.67 381.99 745.09 381.99 745.09 414.32 737.15 414.32 724.17 392.16 724.17 414.32 717.75 414.32 717.75 381.99 725.46 381.99"/>
      <path class="cls-3" d="m769.82,381.99h12.41c9.61,0,15.98,4.66,15.98,16.17s-6.37,16.17-15.98,16.17h-12.41v-32.34Zm12.17,26.63c5.33,0,9.56-2.57,9.56-10.46s-4.23-10.46-9.56-10.46h-5.75v20.92h5.75Z"/>
      <rect class="cls-3" x="821.51" y="381.99" width="6.42" height="32.33"/>
      <polygon class="cls-3" points="852.65 381.99 862.06 381.99 870.1 405.43 878.09 381.99 887.5 381.99 887.5 414.32 881.09 414.32 881.09 391.21 873.19 414.32 866.96 414.32 859.07 391.21 859.07 414.32 852.65 414.32 852.65 381.99"/>
      <polygon class="cls-3" points="912.23 381.99 935.67 381.99 935.67 387.69 918.65 387.69 918.65 395.4 932.58 395.4 932.58 400.91 918.65 400.91 918.65 408.62 935.67 408.62 935.67 414.32 912.23 414.32 912.23 381.99"/>
      <polygon class="cls-3" points="966.43 381.99 979.65 404.67 979.65 381.99 986.07 381.99 986.07 414.32 978.13 414.32 965.15 392.16 965.15 414.32 958.73 414.32 958.73 381.99 966.43 381.99"/>
      <polygon class="cls-3" points="1037.24 381.99 1037.24 387.69 1026.02 387.69 1026.02 414.32 1019.6 414.32 1019.6 387.69 1008.47 387.69 1008.47 381.99 1037.24 381.99"/>
      <path class="cls-3" d="m1072.76,381.51c9.04,0,15.64,5.14,15.64,16.64s-6.61,16.64-15.64,16.64-15.6-5.14-15.6-16.64,6.61-16.64,15.6-16.64m.05,27.44c5.04,0,8.94-3.19,8.94-10.79s-3.9-10.84-8.94-10.84-8.99,3.23-8.99,10.84,3.95,10.79,8.99,10.79"/>
      <path class="cls-3" d="m1123.82,381.51c8.99,0,12.36,4.42,12.6,10.46h-6.42c-.28-2.47-1.66-4.99-6.42-4.99-3.9,0-6.04,1.24-6.04,3.95,0,7.37,19.69,1.76,19.69,14.41,0,6.51-4.28,9.46-13.31,9.46-10.03,0-13.27-4.42-13.6-10.65h6.61c.14,2.76,2,5.18,7.13,5.18,4.66,0,6.52-1.28,6.52-3.95,0-6.09-19.69-.86-19.69-14.22,0-6.18,4.66-9.65,12.93-9.65"/>
      <path class="cls-3" d="m87.6,122.57c-5.68,0-10.32,3.47-10.32,7.69s4.64,7.66,10.32,7.66h101.01c5.7,0,10.35-3.45,10.35-7.66s-4.65-7.69-10.35-7.69h-101.01Z"/>
      <path class="cls-3" d="m129.39,44.83c-4.33,13.79-3.28,37.31,3.87,74.48h9.68c7.14-37.16,8.19-60.69,3.9-74.48-1.17-3.75-4.94-5.61-8.7-5.61s-7.56,1.88-8.75,5.61"/>
      <path class="cls-3" d="m54.85,60.86c-2.3,2.55-3.93,5.62-4.62,9.15-1.18,5.79.48,12.36,4.24,17.84,3.47,5.12,8.56,9.23,13.89,12.61,7.25,4.56,14.54,8.58,17.44,18.85h2.31c-1-16.44-24.16-28.11-23.39-45.72.41-9.13,6.65-15.37,17.64-15.33.69-1.01,1.46-1.96,2.33-2.87-4.15-1.29-8.24-2.01-12.12-2.01-6.82,0-12.97,2.21-17.72,7.47"/>
      <path class="cls-3" d="m104.72,47.77c-6.35.66-12.26,3.01-16.69,7.22-11.93,11.3-8.6,26.76.16,37.84,3.62,4.54,8.38,7.68,12.1,12.05,3.18,3.74,5.42,8.16,5.23,14.4h2.47c4.3-17.36-18.27-32.84-11.79-51.17,3.91-11.03,14.72-16.76,28.83-11.76.36-1.38.59-2.84.92-4.23-4.75-2.9-11.07-4.53-17.46-4.53-1.25,0-2.52.06-3.78.19"/>
      <path class="cls-3" d="m191.55,55.39c.85.91,1.64,1.86,2.34,2.87,10.97-.04,17.22,6.2,17.63,15.33.75,17.6-22.41,29.3-23.4,45.72h2.33c2.9-10.28,10.17-14.29,17.44-18.85,5.34-3.38,10.42-7.48,13.9-12.61,3.75-5.49,5.39-12.06,4.25-17.85-.71-3.52-2.34-6.6-4.63-9.14-4.76-5.26-10.93-7.47-17.74-7.47-3.89,0-7.98.72-12.12,2.01"/>
      <path class="cls-3" d="m150.28,52.11c.34,1.39.56,2.83.91,4.22,14.12-4.98,24.92.73,28.81,11.78,6.52,18.34-16.05,33.82-11.79,51.18h2.49c-.18-6.25,2.04-10.67,5.22-14.4,3.76-4.37,8.49-7.52,12.1-12.07,8.76-11.08,12.1-26.53.16-37.83-4.37-4.22-10.32-6.56-16.65-7.21-1.27-.13-2.54-.2-3.8-.2-6.4,0-12.7,1.62-17.45,4.53"/>
      <path class="cls-3" d="m266.74,400.01c-1.24,3.94.54,6.12-.56,12.45-1,5.75-4.99,10.16-9.66,14.53-14.58,13.58-39.08,20.49-59.65,30.03-4.33,1.71-8.71,3.99-13.47,6.85-3.47,2.13-6.97,4.25-10.09,6.9-18.96,16.12-17.78,28.83-17.78,28.83,3.33-6.53,8.9-13.35,15.58-19.31,8.51-7.64,18.92-14.24,29.94-16.65,8.3-1.84,15.64-.68,19.69,4.63,3.17,4.17,14.96,2.89,13.02-1.58,9.38,0,18-11.54,12.97-19.84,1.04,9.85-10.37,7.82-20.84,6.71-4.65-.49-8.86-.59-12.85-.29,24.93-8.99,52.06-19.65,60.92-39.15,4.98-12.58.85-19.73-2.94-19.75-1.91,0-3.73,1.81-4.27,5.64"/>
      <path class="cls-3" d="m5.23,394.37c-3.79.01-7.92,7.16-2.94,19.75,8.86,19.5,35.99,30.16,60.92,39.15-3.99-.29-8.2-.19-12.85.3-10.47,1.11-21.88,3.14-20.84-6.71-5.04,8.29,3.59,19.84,12.97,19.84-1.94,4.47,9.85,5.75,13.02,1.58,4.04-5.31,11.39-6.47,19.69-4.63,11.03,2.4,21.43,9.01,29.94,16.65,6.68,5.95,12.25,12.78,15.58,19.3,0,0,1.18-12.7-17.78-28.83-3.12-2.65-6.62-4.78-10.09-6.9-4.76-2.86-9.15-5.14-13.47-6.85-20.57-9.54-45.07-16.46-59.65-30.03-4.66-4.36-8.66-8.78-9.66-14.53-1.11-6.32.68-8.5-.56-12.45-.55-3.83-2.36-5.64-4.27-5.64"/>
      <path class="cls-3" d="m29.57,203.1c24.94.07,50.37-3.92,73.39-13.76,7.16-3.06,14.46-7.02,20.81-11.54,2.25-1.58,5.22-3.91,7.22-5.8,2.4-2.11,5.13-4.98,7.13-7.47,9.12,11.24,22.01,19.09,35.16,24.8,6.81,2.92,14.4,5.51,21.56,7.42,3.49.95,8.32,1.97,11.86,2.69,14.3,2.78,29.28,3.92,43.84,3.6v124.94l-.13,5.82c-.16,2.86-.75,8.49-1.15,11.32l-1,5.53-1.26,5.44-1.51,5.33-1.76,5.22c-.97,2.57-3.12,7.59-4.29,10.07l-2.48,4.82c-26.56,48.82-84.37,70.78-137.47,52.01-9.98-3.72-20.11-9.1-28.62-15.53-6.93-5.18-13.95-11.9-19.48-18.56l-3.32-4.24-3.13-4.41-2.95-4.54-2.68-4.73-2.48-4.82c-1.21-2.52-3.3-7.42-4.3-10.07l-1.76-5.22-1.51-5.33-1.28-5.44-1-5.53c-.39-2.78-.98-8.5-1.13-11.32l-.14-5.82v-124.94c.52.02,1.12-.02,1.65.05h2.21Zm108.55-54.37l-.1-.15c-1.25,1.45-9.18,11.38-10.26,12.38-.88.91-2.66,2.66-3.6,3.5-7.33,6.56-16.23,11.64-25.23,15.53-17.44,7.49-36.54,11.27-55.43,12.52-4.49.3-10.09.41-14.58.39-2.69-.01-10.65-.25-13.42-.31v135.53l.19,6.21.43,6.19c.33,3.08,1.28,9.14,1.87,12.18.64,2.98,2.17,8.83,3.04,11.74.9,2.88,2.97,8.49,4.12,11.28,1.18,2.74,3.79,8.07,5.2,10.7l2.95,5.15,3.18,4.98c1.68,2.44,5.21,7.12,7.07,9.41l3.86,4.46c1.99,2.18,6.13,6.31,8.29,8.3l4.45,3.84c2.3,1.87,7.03,5.39,9.47,7.07l4.94,3.18,5.13,2.95,5.31,2.7c3.22,1.56,7.72,3.36,10.98,4.67,53.7,18.76,112.34.01,143.81-46.59,4.2-6.19,8.37-13.96,11.34-20.82,1.12-2.74,3.22-8.44,4.13-11.28.85-2.87,2.39-8.8,3-11.74l1.09-6.06.76-6.12.47-6.19.18-6.21v-135.53c-2.8.07-10.81.28-13.43.31-4.48.01-10.07-.09-14.54-.39-18.9-1.24-38.01-5.02-55.46-12.52-9.01-3.89-17.89-8.99-25.24-15.53-.88-.84-2.74-2.62-3.59-3.5-1.31-1.21-8.93-10.86-10.23-12.38l-.13.15Z"/>
      <path class="cls-3" d="m99.86,245.67c-16.83,10.58-31.56,31.93-31.56,62.18,0,23.62,10.96,43.84,22.49,53.88,20.97,18.33,47.83,20.21,62.2,20.21,10.96,0,30.59-2.08,42.68-8.49,2.26-1.33,2.46-1.7,2.46-10.22v-21.16c0-7.94,0-13.62.38-19.67.37-6.6,1.87-9.81,6.98-10.76,2.28-.38,2.46-.95,2.46-1.72,0-1.11-.95-1.49-3.04-1.49h-33.73c-2.1,0-3.05.38-3.05,1.49,0,.77,2.63,1.35,4.16,1.72,7.55,2.08,8.2,4.16,8.2,19.47v31.25c0,3.24-1.32,5.3-3.76,6.62-4.93,2.84-13.88,3.97-20.68,3.97-17.38,0-34.07-5.67-49.01-20.22-6.61-6.43-20.03-24.83-20.03-51.49,0-22.12,7.75-38.61,18.7-47.32,14.4-11.34,28.04-12.47,39.93-12.47,24.37,0,39.7,8.12,44.42,15.3,2.84,4.54,4.36,8.77,5.31,8.77,1.31,0,1.69-.94,1.69-3.97,0-18.89,1.34-18.35,1.34-21,0-.75-.39-1.51-2.29-1.71-4.71-.19-11.34-.93-15.31-1.87-3.6-.76-18.74-3.23-30.65-3.23-14.57,0-33.29,1.32-50.29,11.92"/>
      <path class="cls-3" d="m144.01,17.97c.39,5.8-5.32,11.88-5.37,17.99h-1.12c-.02-6.1-5.72-12.18-5.33-17.96-.39-5.79,5.32-11.88,5.36-18h1.12c.02,6.1,5.72,12.18,5.33,17.97"/>
    </g>
  </g>
</svg>