<?xml version="1.0" encoding="UTF-8"?>
<svg xmlns="http://www.w3.org/2000/svg" xml:space="preserve" width="190px" height="74px" version="1.1" style="shape-rendering:geometricPrecision; text-rendering:geometricPrecision; image-rendering:optimizeQuality; fill-rule:evenodd; clip-rule:evenodd"
viewBox="0 0 4813.78 1870.7" xmlns:xlink="http://www.w3.org/1999/xlink">
 <defs>
  <style type="text/css">
   <![CDATA[
    .fil0 {fill:#c9bca4;fill-rule:nonzero}
   ]]>
  </style>
 </defs>
 <g id="Camada_x0020_1">
  <metadata id="CorelCorpID_0Corel-Layer"/>
  <g id="_105553337591040">
   <polygon class="fil0" points="0,713.37 49.53,713.37 49.53,958.9 190.87,958.9 190.87,1003.75 0,1003.75 "/>
   <path class="fil0" d="M445.48 713.37l0 158c0,67.04 26.04,90.96 69.6,90.96 43.56,0 69.61,-23.92 69.61,-90.96l0 -158 49.53 0 0 158c0,103.77 -48.25,136.65 -119.14,136.65 -70.88,0 -119.13,-32.88 -119.13,-136.65l0 -158 49.53 0z"/>
   <polygon class="fil0" points="836.68,713.37 894.75,713.37 970.77,818.85 1045.92,713.37 1103.99,713.37 999.37,859.42 1103.14,1003.75 1044.63,1003.75 970.33,900.4 896.47,1003.75 838.39,1003.75 941.3,859.42 "/>
   <path class="fil0" d="M1414.54 962.33c48.67,0 87.53,-30.32 87.53,-103.77 0,-73.45 -38.86,-103.77 -87.53,-103.77 -48.68,0 -87.54,30.32 -87.54,103.77 0,73.45 38.86,103.77 87.54,103.77zm0 -253.22c80.7,0 139.63,46.11 139.63,149.45 0,103.33 -58.93,149.45 -139.63,149.45 -80.29,0 -139.64,-46.12 -139.64,-149.45 0,-103.34 59.35,-149.45 139.64,-149.45z"/>
   <path class="fil0" d="M3350.25 1824.47c53.21,26.61 124.21,33.7 173.89,21.29 81.68,-14.19 44.37,-117.16 3.53,-152.65 -106.43,-120.69 -346.04,-173.9 -477.4,-173.9 60.37,92.28 175.72,236.03 299.98,305.26zm-571.51 -832.39c133.12,-30.18 264.43,-102.93 363.82,-227.17 65.71,-90.5 156.17,-266.21 163.27,-399.34 7.11,-90.5 -53.21,-184.57 -147.31,-184.57 -110.01,108.27 -228.94,319.45 -425.95,676.2l46.17 134.88zm-79.85 7.1l-14.2 -51.48c-3.58,8.88 -10.68,28.4 -17.77,37.28 7.09,7.1 17.77,12.42 31.97,14.2zm-608.76 152.63c113.58,44.36 230.69,-85.18 285.72,-154.41 115.35,-138.41 216.56,-338.97 253.81,-468.55 15.96,-86.95 26.63,-186.33 -8.86,-257.32 -101.2,37.25 -186.4,85.18 -262.67,145.53 -191.67,161.49 -358.53,447.24 -331.9,619.4 7.1,71 26.64,101.15 63.9,115.35zm-3.52 -800.44c53.21,-143.74 211.15,-232.47 356.71,-232.47 76.28,1.78 143.74,35.49 189.86,111.79 152.66,-58.56 374.5,-94.05 516.48,-79.85 118.92,-90.52 236.02,-150.84 289.3,-150.84 5.34,0 10.67,1.75 14.2,7.1 -74.52,30.15 -157.94,74.51 -257.34,150.83 92.3,33.74 147.28,106.5 170.39,198.78 31.92,157.94 -51.51,342.52 -150.9,441.91 -122.45,122.47 -303.45,198.78 -424.13,221.86 56.79,145.53 136.65,323.01 236.03,461.44 165.04,8.89 470.3,24.84 562.59,204.09 33.74,60.36 17.77,149.08 -63.89,175.71 -53.22,15.96 -122.45,10.65 -186.34,-15.96 -166.86,-81.66 -303.5,-189.91 -401.08,-328.34 -202.34,-12.41 -507.61,86.97 -378.06,266.21l-5.29 3.55c-21.35,44.39 -46.16,-40.81 -46.16,-76.29 0,-78.1 113.58,-221.87 402.88,-227.18 -81.66,-147.32 -156.18,-301.74 -209.45,-459.68 -19.48,3.55 -33.68,0 -46.12,-3.55 -120.68,189.89 -239.61,365.6 -425.94,468.54 -92.29,53.24 -179.3,79.87 -276.87,74.54 -127.78,-10.65 -177.48,-92.28 -177.48,-140.22l35.5 -24.82c1.76,12.41 -16.01,15.96 -16.01,26.61 0,94.08 104.73,120.68 177.53,120.68 95.81,0 173.9,-30.18 244.89,-78.08 204.12,-143.78 337.23,-456.13 440.15,-667.33l-17.72 -90.49c0,-28.4 7.04,-28.4 5.28,-51.48 12.44,-1.8 10.67,15.98 19.54,10.65 17.77,-12.45 23.05,-12.45 23.05,-8.87 3.58,23.06 5.34,40.81 12.44,62.1 252.05,-392.23 323.04,-468.54 411.75,-543.08 -141.99,-7.1 -321.22,24.85 -466.78,81.65 30.16,76.29 21.3,184.57 1.76,266.22 -35.44,140.21 -136.65,340.75 -255.56,482.73 -81.62,104.73 -181.01,189.91 -303.46,168.61 -69.23,-12.43 -124.26,-63.88 -143.74,-136.66 -60.37,-237.82 200.54,-527.13 385.11,-658.43 117.12,-79.88 214.74,-111.82 280.4,-143.77 -40.79,-76.3 -101.15,-102.94 -172.15,-106.49 -134.88,0 -292.82,86.98 -337.17,216.52 -5.35,1.76 -10.68,1.76 -14.2,1.76z"/>
   <path class="fil0" d="M3601.22 745.4c7.05,-21.3 30.17,-85.19 -31.97,-30.18 -10.63,8.88 -56.79,62.1 -88.77,104.7 -31.92,46.16 -62.07,94.07 -78.03,124.26 111.76,-40.83 175.66,-133.13 198.77,-198.78zm104.67 179.24c-62.07,81.64 -134.88,172.14 -214.73,220.08 -83.43,49.69 -191.68,44.35 -209.45,-92.29 -10.62,-79.85 55.03,-182.82 131.36,-255.58 55.03,-51.45 111.82,-88.73 149.08,-104.71 74.51,-39.03 118.92,1.78 99.39,76.32 -26.63,101.15 -141.98,175.72 -269.77,200.53 -23.06,51.49 -46.12,102.97 -30.15,154.43 21.29,49.69 83.42,24.84 122.44,3.55 67.42,-39.05 154.41,-149.09 214.73,-223.62 5.34,-1.77 16.01,0 7.1,21.29z"/>
   <path class="fil0" d="M3917.32 720.53c-101.21,70.99 -181.06,255.57 -205.92,333.65 -7.05,28.4 -26.59,111.83 30.21,86.98 33.73,-14.2 95.8,-72.78 152.6,-147.29 17.78,-58.58 56.79,-138.46 104.73,-230.75 -1.77,-55.01 -33.74,-79.84 -81.62,-42.59zm120.63 427.73c-101.14,79.88 -175.66,12.42 -159.7,-101.17 -88.71,104.72 -136.64,124.26 -165.04,126.02 -58.61,3.55 -83.43,-47.93 -83.43,-108.25 0,-143.77 122.45,-331.9 259.14,-372.73 24.82,-7.1 51.46,-10.62 76.28,-7.1 12.44,1.8 44.35,8.88 56.79,40.83 8.91,-15.95 15.96,-26.63 15.96,-26.63 24.88,8.88 55.03,0 92.35,-5.32 -95.87,179.28 -168.63,337.22 -181.06,409.97 -14.2,62.13 40.83,55.03 72.75,28.4 44.36,-35.5 124.26,-115.35 211.22,-227.17 10.67,-5.32 15.95,5.33 8.85,19.53 -70.98,92.29 -145.5,175.72 -204.11,223.62z"/>
   <path class="fil0" d="M4373.64 740.06c120.68,-86.94 234.27,-197.01 323.03,-312.35 53.22,-63.9 101.15,-138.44 101.15,-188.13 0,-21.3 -15.95,-35.5 -31.92,-31.95 -56.79,14.2 -120.74,81.64 -204.11,179.24 -46.17,58.58 -138.46,230.75 -188.15,353.19zm42.59 353.19c63.89,-49.68 133.12,-124.26 181.06,-188.14 12.43,-7.1 17.72,1.78 14.19,12.43 -44.35,62.13 -111.82,134.88 -179.29,189.91 -85.19,69.21 -243.13,124.21 -255.56,-51.48 -10.63,-149.08 173.94,-496.93 269.76,-619.41 81.67,-94.05 197.02,-221.83 298.17,-243.13 16.01,-3.55 33.73,-5.33 42.58,0 17.78,10.65 26.64,26.64 26.64,46.15 -5.28,56.79 -53.21,136.66 -102.91,200.56 -106.49,141.98 -250.28,260.88 -347.85,340.76 -37.27,63.89 -95.87,189.89 -110.06,275.07 -17.73,129.58 92.28,92.29 163.27,37.28z"/>
  </g>
 </g>
</svg>
